<svg id="Layer_1" xmlns="http://www.w3.org/2000/svg" xmlns:xlink="http://www.w3.org/1999/xlink" x="0px" y="0px" viewBox="0 0 277 118" style="enable-background:new 0 0 277 118;" xml:space="preserve">
    <path fill="#3AB44A" class="logo-color" d="M200,60.4v16.4c0,2.7-1.5,4.3-4,4.3c-2.5,0-4-1.6-4-4.3V61.3c0-5.9-2.5-9-7.2-9c-4.9,0-7.8,3.8-7.8,10.1v14.3
c0,2.7-1.5,4.3-4,4.3c-2.5,0-4-1.6-4-4.3V61.3c0-5.9-2.5-9-7.2-9c-4.9,0-7.8,3.8-7.8,10.1v14.3c0,2.7-1.5,4.3-4,4.3
c-2.5,0-4-1.6-4-4.3v-27c0-2.6,1.5-4.3,4-4.3c2.5,0,3.9,1.6,4,4.1h0.1c2.1-2.9,5.5-4.6,9.6-4.6c4.9,0,8.5,1.9,10.5,5.5h0.1
c2.5-3.5,6.5-5.5,11.9-5.5C195.5,45,200,50.3,200,60.4"></path>
    <path  fill="#3AB44A" class="logo-color" d="M226,73.6c6.4,0,10.7-4.5,10.7-11c0-6.6-4.3-11.1-10.7-11.1c-6.4,0-10.7,4.5-10.7,11.1
C215.3,69.1,219.6,73.6,226,73.6 M226,44c11.2,0,19,7.5,19,18.5c0,11-7.8,18.5-19,18.5c-11.3,0-19-7.5-19-18.5
C207,51.5,214.7,44,226,44"></path>
    <path  fill="#3AB44A" class="logo-color" d="M260.2,49.4v27.3c0,2.7-1.5,4.3-4.2,4.3c-2.6,0-4.2-1.6-4.2-4.3V49.4c0-2.6,1.6-4.3,4.2-4.3
C258.6,45.1,260.2,46.8,260.2,49.4 M251,34.8c0-2.9,2-4.8,5-4.8c3.1,0,5,1.9,5,4.8c0,2.9-2,4.8-5,4.8C253,39.6,251,37.7,251,34.8"></path>
    <path  fill="#3AB44A" class="logo-color" d="M276.2,49.4v27.3c0,2.7-1.5,4.3-4.2,4.3c-2.6,0-4.2-1.6-4.2-4.3V49.4c0-2.6,1.6-4.3,4.2-4.3
C274.6,45.1,276.2,46.8,276.2,49.4 M267,34.8c0-2.9,2-4.8,5-4.8c3.1,0,5,1.9,5,4.8c0,2.9-2,4.8-5,4.8C269,39.6,267,37.7,267,34.8"></path>
    <defs>
        <filter id="Adobe_OpacityMaskFilter" filterUnits="userSpaceOnUse" x="0" y="0" width="118" height="118">
            <feColorMatrix type="matrix" values="1 0 0 0 0  0 1 0 0 0  0 0 1 0 0  0 0 0 1 0"></feColorMatrix>
        </filter>
    </defs>
    <mask maskUnits="userSpaceOnUse" x="0" y="0" width="118" height="118" id="mask0_0_282_00000156578991687504990090000011881566511855483046_">
        <path class="st1" d="M0,0h118v118H0V0z"></path>
    </mask>
    <g class="st2">
        <path  fill="#3AB44A"  class="logo-color" d="M118,59c0-33.9-28.8-61.3-63.2-58.9C25.7,2.2,2.2,25.7,0.1,54.8C-2.3,89.2,25.1,118,59,118
c9.8,0,19.4-2.5,27.9-7.1l2.1,3.1l6.4-13.5l-14.9,1.2l2.1,3c-7.3,3.8-15.4,5.8-23.7,5.8c-30.3,0-54.6-26.4-51.2-57.4
c2.6-23.6,21.7-42.7,45.3-45.3c31-3.5,57.4,20.8,57.4,51.2c0,4.6-0.6,9.1-1.8,13.4c-0.2,0.7-0.9,1.2-1.6,1.2H94.9
c-0.4,0-0.7-0.3-0.7-0.7V44.5c0-3-0.9-5.5-2.6-7.4c-1.7-1.9-4.3-2.8-7.8-2.8c-3.1,0-5.5,0.8-7.2,2.3c-1.6,1.5-2.9,3.7-3.8,6.3
L61.4,72.9c-0.5,1.3-1.3,1.9-2.6,1.9c-0.7,0-1.3-0.2-1.7-0.7c-0.4-0.5-0.7-1.1-0.7-1.9V44.5c0-3-0.9-5.5-2.6-7.4
c-1.7-1.9-4.3-2.8-7.8-2.8c-3.1,0-5.5,0.8-7.2,2.3C37.2,38.2,36,40.3,35,43L22.5,76c-0.9,2.4,0.3,5.1,2.8,5.8
c2.2,0.5,4.3-0.6,5-2.6l13-34.9c0.2-0.6,0.6-1.1,1-1.5c0.4-0.4,0.9-0.6,1.6-0.6c0.7,0,1.3,0.2,1.7,0.7c0.5,0.5,0.7,1.1,0.7,2v27.6
c0,3.1,0.9,5.6,2.6,7.4c1.7,1.9,4.3,2.8,7.8,2.8c3.1,0,5.5-0.8,7.2-2.3c1.7-1.5,3-3.7,3.9-6.3L81,44.3c0.2-0.6,0.6-1.1,1-1.5
c0.4-0.4,1-0.6,1.6-0.6c0.7,0,1.3,0.2,1.7,0.7c0.4,0.5,0.7,1.1,0.7,2v30.4c0,3.6,2.9,6.6,6.6,6.6l15,0c3.7,0,7-2.5,8.1-6.1
C116.9,71.2,118,65,118,59"></path>
    </g>
</svg>