<svg width="288.901" height="73.101" viewBox="0 0 288.901 73.101" xmlns="http://www.w3.org/2000/svg"><g id="svgGroup" stroke-linecap="round" fill-rule="nonzero" font-size="9pt" stroke="#000" stroke-width="0" fill="#3bb54a" style="stroke:#000;stroke-width:0;fill:#3bb54a"><path d="M 0 66.5 L 0 28.7 Q 0 25.6 1.6 24 Q 3.2 22.4 6.1 22.4 A 8.431 8.431 0 0 1 7.921 22.585 Q 9.544 22.944 10.6 24 Q 11.989 25.389 12.172 27.909 A 10.92 10.92 0 0 1 12.2 28.7 L 12.2 36 L 11.1 33 A 17.513 17.513 0 0 1 14.89 27.118 A 16.772 16.772 0 0 1 17.3 25.1 A 16.319 16.319 0 0 1 24.627 22.365 A 21.123 21.123 0 0 1 27.3 22.2 A 20.404 20.404 0 0 1 31.549 22.619 Q 34.377 23.221 36.556 24.688 A 12.749 12.749 0 0 1 37 25 A 12.766 12.766 0 0 1 40.664 29.311 Q 41.584 31.022 42.18 33.154 A 23.567 23.567 0 0 1 42.3 33.6 L 40.9 33.6 Q 42.9 28.3 47.5 25.25 A 18.375 18.375 0 0 1 56.622 22.248 A 22.629 22.629 0 0 1 58.1 22.2 Q 63.7 22.2 67.35 24.4 Q 71 26.6 72.8 31.05 A 22.107 22.107 0 0 1 73.966 35.054 Q 74.362 37.059 74.511 39.389 A 45.731 45.731 0 0 1 74.6 42.3 L 74.6 66.5 A 9.314 9.314 0 0 1 74.425 68.368 Q 74.198 69.475 73.679 70.324 A 4.977 4.977 0 0 1 72.95 71.25 A 5.387 5.387 0 0 1 70.477 72.638 Q 69.619 72.867 68.598 72.896 A 10.547 10.547 0 0 1 68.3 72.9 A 8.726 8.726 0 0 1 66.482 72.723 Q 64.775 72.359 63.7 71.25 Q 62.287 69.793 62.122 67.206 A 11.07 11.07 0 0 1 62.1 66.5 L 62.1 42.8 A 26.927 26.927 0 0 0 61.956 39.906 Q 61.635 36.952 60.603 35.152 A 6.715 6.715 0 0 0 60.25 34.6 A 5.766 5.766 0 0 0 57.262 32.464 Q 55.859 32 54 32 A 11.173 11.173 0 0 0 50.556 32.506 A 8.911 8.911 0 0 0 46.3 35.45 Q 43.939 38.36 43.569 43.155 A 24.01 24.01 0 0 0 43.5 45 L 43.5 66.5 A 9.609 9.609 0 0 1 43.332 68.358 Q 43.12 69.434 42.64 70.267 A 4.968 4.968 0 0 1 41.9 71.25 Q 40.424 72.772 37.758 72.89 A 10.335 10.335 0 0 1 37.3 72.9 A 8.761 8.761 0 0 1 35.437 72.714 Q 34.225 72.45 33.319 71.812 A 5.068 5.068 0 0 1 32.65 71.25 Q 31.158 69.758 31.015 67.08 A 10.895 10.895 0 0 1 31 66.5 L 31 42.8 A 26.927 26.927 0 0 0 30.856 39.906 Q 30.535 36.952 29.503 35.152 A 6.715 6.715 0 0 0 29.15 34.6 A 5.811 5.811 0 0 0 26.038 32.413 Q 25.045 32.103 23.833 32.026 A 13.066 13.066 0 0 0 23 32 A 11.173 11.173 0 0 0 19.556 32.506 A 8.911 8.911 0 0 0 15.3 35.45 Q 12.939 38.36 12.569 43.155 A 24.01 24.01 0 0 0 12.5 45 L 12.5 66.5 A 9.404 9.404 0 0 1 12.199 68.994 Q 11.412 71.847 8.574 72.616 A 9.091 9.091 0 0 1 6.2 72.9 A 8.726 8.726 0 0 1 4.382 72.723 Q 2.675 72.359 1.6 71.25 Q 0.187 69.793 0.022 67.206 A 11.07 11.07 0 0 1 0 66.5 Z" id="0"/><path d="M 103.141 72.425 A 23.879 23.879 0 0 1 96.6 70 Q 91 66.9 87.9 61.15 A 25.439 25.439 0 0 1 85.241 53.189 A 34.057 34.057 0 0 1 84.8 47.6 Q 84.8 41.7 86.55 37.05 A 22.732 22.732 0 0 1 90.946 29.744 A 21.835 21.835 0 0 1 91.6 29.05 Q 94.9 25.7 99.5 23.95 A 26.622 26.622 0 0 1 105.928 22.417 A 33.656 33.656 0 0 1 109.8 22.2 A 31.354 31.354 0 0 1 116.46 22.876 A 23.879 23.879 0 0 1 123 25.3 Q 128.6 28.4 131.7 34.1 A 24.99 24.99 0 0 1 134.327 41.827 A 33.759 33.759 0 0 1 134.8 47.6 Q 134.8 53.5 133.05 58.2 A 22.953 22.953 0 0 1 129.37 64.72 A 21.453 21.453 0 0 1 128 66.25 Q 124.7 69.6 120.1 71.35 A 26.622 26.622 0 0 1 113.672 72.884 A 33.656 33.656 0 0 1 109.8 73.1 A 31.354 31.354 0 0 1 103.141 72.425 Z M 109.8 63.6 Q 113.5 63.6 116.3 61.8 A 10.901 10.901 0 0 0 119.619 58.405 A 14.413 14.413 0 0 0 120.65 56.45 A 16.995 16.995 0 0 0 121.71 53.009 Q 122.2 50.581 122.2 47.6 Q 122.2 42.589 120.866 39.166 A 12.035 12.035 0 0 0 118.8 35.65 A 11.121 11.121 0 0 0 110.662 31.724 A 15.179 15.179 0 0 0 109.8 31.7 A 13.237 13.237 0 0 0 106.173 32.18 A 11.116 11.116 0 0 0 103.3 33.45 A 10.536 10.536 0 0 0 100.041 36.707 A 14.097 14.097 0 0 0 98.95 38.75 A 16.995 16.995 0 0 0 97.891 42.191 Q 97.4 44.619 97.4 47.6 A 29.348 29.348 0 0 0 97.716 52.057 Q 98.073 54.377 98.835 56.24 A 12.416 12.416 0 0 0 100.8 59.55 A 11.007 11.007 0 0 0 108.854 63.57 A 14.74 14.74 0 0 0 109.8 63.6 Z" id="1"/><path d="M 145.1 66 L 145.1 29.3 Q 145.1 26 146.7 24.25 A 5.172 5.172 0 0 1 149.315 22.729 Q 150.16 22.515 151.165 22.501 A 10.126 10.126 0 0 1 151.3 22.5 A 8.24 8.24 0 0 1 153.203 22.707 Q 154.867 23.102 155.95 24.25 A 5.631 5.631 0 0 1 157.213 26.467 Q 157.6 27.702 157.6 29.3 L 157.6 66 Q 157.6 68.453 156.66 70.083 A 5.545 5.545 0 0 1 156 71 Q 154.476 72.715 151.591 72.796 A 10.318 10.318 0 0 1 151.3 72.8 A 7.986 7.986 0 0 1 149.443 72.597 A 5.175 5.175 0 0 1 146.7 71 A 5.454 5.454 0 0 1 146.675 70.972 Q 145.258 69.355 145.116 66.621 A 11.997 11.997 0 0 1 145.1 66 Z M 149.17 13.012 Q 147.16 12.626 145.85 11.45 A 5.738 5.738 0 0 1 144.026 8.087 A 8.411 8.411 0 0 1 143.9 6.6 A 8.383 8.383 0 0 1 144.12 4.62 A 5.479 5.479 0 0 1 145.85 1.7 A 6.446 6.446 0 0 1 148.273 0.399 Q 149.23 0.112 150.375 0.032 A 13.171 13.171 0 0 1 151.3 0 A 12.237 12.237 0 0 1 153.384 0.166 Q 155.494 0.531 156.8 1.7 A 5.491 5.491 0 0 1 158.471 4.557 Q 158.7 5.488 158.7 6.6 A 8.125 8.125 0 0 1 158.457 8.644 A 5.658 5.658 0 0 1 156.8 11.45 Q 154.9 13.2 151.3 13.2 A 11.308 11.308 0 0 1 149.17 13.012 Z" id="2"/><path d="M 170.6 66 L 170.6 29.3 Q 170.6 26 172.2 24.25 A 5.172 5.172 0 0 1 174.815 22.729 Q 175.66 22.515 176.665 22.501 A 10.126 10.126 0 0 1 176.8 22.5 A 8.24 8.24 0 0 1 178.703 22.707 Q 180.367 23.102 181.45 24.25 A 5.631 5.631 0 0 1 182.713 26.467 Q 183.1 27.702 183.1 29.3 L 183.1 66 Q 183.1 68.453 182.16 70.083 A 5.545 5.545 0 0 1 181.5 71 Q 179.976 72.715 177.091 72.796 A 10.318 10.318 0 0 1 176.8 72.8 A 7.986 7.986 0 0 1 174.943 72.597 A 5.175 5.175 0 0 1 172.2 71 A 5.454 5.454 0 0 1 172.175 70.972 Q 170.758 69.355 170.616 66.621 A 11.997 11.997 0 0 1 170.6 66 Z M 174.67 13.012 Q 172.66 12.626 171.35 11.45 A 5.738 5.738 0 0 1 169.526 8.087 A 8.411 8.411 0 0 1 169.4 6.6 A 8.383 8.383 0 0 1 169.62 4.62 A 5.479 5.479 0 0 1 171.35 1.7 A 6.446 6.446 0 0 1 173.773 0.399 Q 174.73 0.112 175.875 0.032 A 13.171 13.171 0 0 1 176.8 0 A 12.237 12.237 0 0 1 178.884 0.166 Q 180.994 0.531 182.3 1.7 A 5.491 5.491 0 0 1 183.971 4.557 Q 184.2 5.488 184.2 6.6 A 8.125 8.125 0 0 1 183.957 8.644 A 5.658 5.658 0 0 1 182.3 11.45 Q 180.4 13.2 176.8 13.2 A 11.308 11.308 0 0 1 174.67 13.012 Z" id="3"/></g><g id="svgGroup2" stroke-linecap="round" fill-rule="nonzero" font-size="9pt" stroke="#000" stroke-width="0" fill="#050f37" style="stroke:#000;stroke-width:0;fill:#050f37"><path d="M 199.672 72.286 A 6.684 6.684 0 0 1 196.65 70.5 A 7.126 7.126 0 0 1 194.661 66.199 A 9.709 9.709 0 0 1 194.6 65.1 A 8.157 8.157 0 0 1 194.979 62.563 A 6.739 6.739 0 0 1 196.65 59.85 Q 198.7 57.8 202.1 57.8 A 9.614 9.614 0 0 1 204.323 58.042 A 6.373 6.373 0 0 1 207.55 59.85 A 7.001 7.001 0 0 1 209.432 63.941 A 9.533 9.533 0 0 1 209.5 65.1 Q 209.5 68.4 207.55 70.5 A 6.381 6.381 0 0 1 204.136 72.395 A 9.57 9.57 0 0 1 202.1 72.6 A 8.915 8.915 0 0 1 199.672 72.286 Z" id="4"/><path d="M 247.2 43.1 L 252.2 43.1 L 252.2 50.3 L 247.3 50.3 A 105.339 105.339 0 0 0 243.669 50.359 Q 240.191 50.479 237.743 50.847 A 29.556 29.556 0 0 0 237.4 50.9 A 18.877 18.877 0 0 0 235.49 51.305 Q 233.264 51.908 232.15 52.95 A 4.745 4.745 0 0 0 230.759 55.453 A 7.122 7.122 0 0 0 230.6 57 Q 230.6 60.3 232.9 62.4 A 7.608 7.608 0 0 0 236.031 64.091 Q 237.194 64.417 238.579 64.483 A 15.096 15.096 0 0 0 239.3 64.5 A 11.952 11.952 0 0 0 242.73 64.023 A 10.309 10.309 0 0 0 245.15 62.95 Q 247.7 61.4 249.2 58.7 A 11.91 11.91 0 0 0 250.594 54.303 A 14.978 14.978 0 0 0 250.7 52.5 L 250.7 41 Q 250.7 36 248.5 33.8 A 6.344 6.344 0 0 0 246.324 32.417 Q 244.399 31.652 241.498 31.604 A 23.771 23.771 0 0 0 241.1 31.6 A 27.499 27.499 0 0 0 237.695 31.822 A 35.319 35.319 0 0 0 234.85 32.3 A 29.704 29.704 0 0 0 230.971 33.404 A 38.641 38.641 0 0 0 227.8 34.7 A 7.537 7.537 0 0 1 226.844 35.08 Q 226.072 35.323 225.385 35.323 A 3.5 3.5 0 0 1 224.45 35.2 Q 223 34.8 222.2 33.55 Q 221.4 32.3 221.4 30.8 A 5.859 5.859 0 0 1 221.928 28.396 A 7.159 7.159 0 0 1 222.2 27.85 Q 223 26.4 224.9 25.7 A 49.203 49.203 0 0 1 230.239 23.832 A 39.861 39.861 0 0 1 233.75 23 A 49.697 49.697 0 0 1 237.691 22.413 Q 239.696 22.2 241.5 22.2 A 38.888 38.888 0 0 1 246.346 22.484 Q 248.846 22.799 250.943 23.462 A 19.058 19.058 0 0 1 253.35 24.4 Q 258 26.6 260.3 31.05 A 18.76 18.76 0 0 1 261.872 35.432 Q 262.35 37.487 262.514 39.889 A 38.325 38.325 0 0 1 262.6 42.5 L 262.6 66.5 A 10.258 10.258 0 0 1 262.446 68.337 Q 262.263 69.345 261.86 70.141 A 4.992 4.992 0 0 1 261.1 71.25 A 4.854 4.854 0 0 1 258.608 72.696 Q 257.785 72.9 256.8 72.9 A 7.631 7.631 0 0 1 255.023 72.705 A 5.052 5.052 0 0 1 252.45 71.25 A 5.316 5.316 0 0 1 251.264 69.163 Q 251.014 68.365 250.936 67.405 A 11.156 11.156 0 0 1 250.9 66.5 L 250.9 61.7 L 251.7 61.7 A 14.577 14.577 0 0 1 250.298 65.704 A 12.964 12.964 0 0 1 248.95 67.75 Q 246.9 70.3 243.8 71.7 Q 240.7 73.1 236.7 73.1 A 23.407 23.407 0 0 1 231.394 72.522 A 19.051 19.051 0 0 1 227.25 71.05 A 17.485 17.485 0 0 1 223.005 68.15 A 15.329 15.329 0 0 1 220.75 65.5 Q 218.4 62 218.4 57.6 A 16.847 16.847 0 0 1 218.746 54.081 Q 219.385 51.093 221.2 49.05 A 11.405 11.405 0 0 1 224.053 46.78 Q 225.458 45.968 227.251 45.35 A 28.027 28.027 0 0 1 230.3 44.5 A 47.584 47.584 0 0 1 234.658 43.762 Q 239.564 43.144 246.241 43.103 A 156.098 156.098 0 0 1 247.2 43.1 Z" id="5"/><path d="M 275.3 66 L 275.3 29.3 Q 275.3 26 276.9 24.25 A 5.172 5.172 0 0 1 279.515 22.729 Q 280.36 22.515 281.365 22.501 A 10.126 10.126 0 0 1 281.5 22.5 A 8.24 8.24 0 0 1 283.403 22.707 Q 285.067 23.102 286.15 24.25 A 5.631 5.631 0 0 1 287.413 26.467 Q 287.8 27.702 287.8 29.3 L 287.8 66 Q 287.8 68.453 286.86 70.083 A 5.545 5.545 0 0 1 286.2 71 Q 284.676 72.715 281.791 72.796 A 10.318 10.318 0 0 1 281.5 72.8 A 7.986 7.986 0 0 1 279.643 72.597 A 5.175 5.175 0 0 1 276.9 71 A 5.454 5.454 0 0 1 276.875 70.972 Q 275.458 69.355 275.316 66.621 A 11.997 11.997 0 0 1 275.3 66 Z M 279.37 13.012 Q 277.36 12.626 276.05 11.45 A 5.738 5.738 0 0 1 274.226 8.087 A 8.411 8.411 0 0 1 274.1 6.6 A 8.383 8.383 0 0 1 274.32 4.62 A 5.479 5.479 0 0 1 276.05 1.7 A 6.446 6.446 0 0 1 278.473 0.399 Q 279.43 0.112 280.575 0.032 A 13.171 13.171 0 0 1 281.5 0 A 12.237 12.237 0 0 1 283.584 0.166 Q 285.694 0.531 287 1.7 A 5.491 5.491 0 0 1 288.671 4.557 Q 288.9 5.488 288.9 6.6 A 8.125 8.125 0 0 1 288.657 8.644 A 5.658 5.658 0 0 1 287 11.45 Q 285.1 13.2 281.5 13.2 A 11.308 11.308 0 0 1 279.37 13.012 Z" id="6"/></g></svg>